<svg id="Vault" data-name="Vault" xmlns="http://www.w3.org/2000/svg" viewBox="0 0 857.57 853.5"><defs><style>.cls-1{fill:#f18420;}.cls-2{fill:#e52634;}.cls-3{fill:#e6176d;}.cls-4{fill:#c52586;}.cls-5{fill:#364d9c;}.cls-6{fill:#346db4;}.cls-7{fill:#1bb0e2;}.cls-8{fill:#5fb346;}.cls-9{fill:#fbd305;}</style></defs><g id="_Répétition_radiale_" data-name="&lt;Répétition radiale&gt;"><path class="cls-1" d="M580.46,613.05,348.09,736.52a5.08,5.08,0,0,0-2.11,6.89l57,107.38a5.1,5.1,0,0,0,6.9,2.11l124.5-66.15a5.16,5.16,0,0,0,2.48-3l50.81-164.7A5.09,5.09,0,0,0,580.46,613.05Z"/></g><g id="_Répétition_radiale_2" data-name="&lt;Répétition radiale&gt;"><path class="cls-2" d="M420.76,662.08,163.38,607.3a5.1,5.1,0,0,0-6,3.92L132,730.15A5.1,5.1,0,0,0,136,736.2l137.89,29.35a5.07,5.07,0,0,0,3.83-.71l144.79-93.5A5.09,5.09,0,0,0,420.76,662.08Z"/></g><g id="_Répétition_radiale_3" data-name="&lt;Répétition radiale&gt;"><path class="cls-3" d="M266.9,597,105,389.58a5.09,5.09,0,0,0-7.15-.88L2,463.53a5.11,5.11,0,0,0-.88,7.16L87.85,581.81a5.13,5.13,0,0,0,3.38,1.92l171,21.45A5.1,5.1,0,0,0,266.9,597Z"/></g><g id="_Répétition_radiale_4" data-name="&lt;Répétition radiale&gt;"><path class="cls-4" d="M190.89,448.22l9.25-263a5.1,5.1,0,0,0-4.92-5.27L73.71,175.69a5.1,5.1,0,0,0-5.28,4.92l-5,140.9a5.12,5.12,0,0,0,1.36,3.64L182.05,451.51A5.11,5.11,0,0,0,190.89,448.22Z"/></g><g id="_Répétition_radiale_5" data-name="&lt;Répétition radiale&gt;"><path class="cls-5" d="M228.28,285.4,404.4,89.9a5.09,5.09,0,0,0-.37-7.2L313.69,1.31a5.1,5.1,0,0,0-7.2.38L212.12,106.43a5.09,5.09,0,0,0-1.3,3.67l8.58,172.14A5.1,5.1,0,0,0,228.28,285.4Z"/></g><g id="_Répétition_radiale_6" data-name="&lt;Répétition radiale&gt;"><path class="cls-6" d="M361.58,184.71l260.58-36.56a5.08,5.08,0,0,0,4.34-5.75L609.61,22a5.09,5.09,0,0,0-5.75-4.34L464.24,37.23a5.06,5.06,0,0,0-3.36,2L356.8,176.58A5.1,5.1,0,0,0,361.58,184.71Z"/></g><g id="_Répétition_radiale_7" data-name="&lt;Répétition radiale&gt;"><path class="cls-7" d="M528.42,193.25,751.53,332.76a5.11,5.11,0,0,0,7-1.62L823,228a5.1,5.1,0,0,0-1.62-7L701.86,146.27a5.08,5.08,0,0,0-3.84-.65L530,184A5.09,5.09,0,0,0,528.42,193.25Z"/></g><g id="_Répétition_radiale_8" data-name="&lt;Répétition radiale&gt;"><path class="cls-8" d="M650.73,307,732,557.33a5.11,5.11,0,0,0,6.43,3.27l115.65-37.54a5.1,5.1,0,0,0,3.27-6.43L813.79,382.54a5.06,5.06,0,0,0-2.52-3L657.9,300.93A5.1,5.1,0,0,0,650.73,307Z"/></g><g id="_Répétition_radiale_9" data-name="&lt;Répétition radiale&gt;"><path class="cls-9" d="M671.28,472.83l-98.64,244a5.09,5.09,0,0,0,2.82,6.64L688.18,769a5.1,5.1,0,0,0,6.64-2.81l52.85-130.71a5.14,5.14,0,0,0,0-3.89L680.7,472.76A5.1,5.1,0,0,0,671.28,472.83Z"/></g></svg>